<svg xmlns="http://www.w3.org/2000/svg" viewBox="0 0 900 900"><defs><linearGradient id="vg" x1="0" y1="0" x2="1" y2="1"><stop offset="0" stop-color="#8B5CF6"/><stop offset="1" stop-color="#6D28D9"/></linearGradient></defs><rect x="30" y="30" width="840" height="840" rx="200" fill="url(#vg)"/><g transform="translate(450,450) scale(0.6) translate(-450,-450)"><rect x="250.0" y="300.0" width="52.0" height="52.0" rx="10.0" fill="#FFFFFF"/><rect x="320.0" y="300.0" width="52.0" height="52.0" rx="10.0" fill="#FFFFFF"/><rect x="390.0" y="300.0" width="52.0" height="52.0" rx="10.0" fill="#FFFFFF"/><rect x="460.0" y="300.0" width="52.0" height="52.0" rx="10.0" fill="#FFFFFF"/><rect x="530.0" y="300.0" width="52.0" height="52.0" rx="10.0" fill="#FFFFFF"/><rect x="600.0" y="300.0" width="52.0" height="52.0" rx="10.0" fill="#FFFFFF"/><rect x="250.0" y="370.0" width="52.0" height="52.0" rx="10.0" fill="#FFFFFF"/><rect x="320.0" y="370.0" width="52.0" height="52.0" rx="10.0" fill="#FFFFFF"/><rect x="390.0" y="370.0" width="52.0" height="52.0" rx="10.0" fill="#FFFFFF"/><rect x="460.0" y="370.0" width="52.0" height="52.0" rx="10.0" fill="#FFFFFF"/><rect x="530.0" y="370.0" width="52.0" height="52.0" rx="10.0" fill="#FFFFFF"/><rect x="600.0" y="370.0" width="52.0" height="52.0" rx="10.0" fill="#FFFFFF"/><rect x="250.0" y="440.0" width="52.0" height="52.0" rx="10.0" fill="#FFFFFF"/><rect x="320.0" y="440.0" width="52.0" height="52.0" rx="10.0" fill="#FFFFFF"/><rect x="390.0" y="440.0" width="52.0" height="52.0" rx="10.0" fill="#FFFFFF"/><rect x="460.0" y="440.0" width="52.0" height="52.0" rx="10.0" fill="#FFFFFF"/><rect x="530.0" y="440.0" width="52.0" height="52.0" rx="10.0" fill="#FFFFFF"/><rect x="600.0" y="440.0" width="52.0" height="52.0" rx="10.0" fill="#FFFFFF"/><rect x="250.0" y="510.0" width="52.0" height="52.0" rx="10.0" fill="#FFFFFF"/><rect x="320.0" y="510.0" width="52.0" height="52.0" rx="10.0" fill="#FFFFFF"/><rect x="390.0" y="510.0" width="52.0" height="52.0" rx="10.0" fill="#FFFFFF"/><rect x="460.0" y="510.0" width="52.0" height="52.0" rx="10.0" fill="#FFFFFF"/><rect x="530.0" y="510.0" width="52.0" height="52.0" rx="10.0" fill="#FFFFFF"/><rect x="600.0" y="510.0" width="52.0" height="52.0" rx="10.0" fill="#FFFFFF"/><rect x="250.0" y="580.0" width="52.0" height="52.0" rx="10.0" fill="#FFFFFF"/><rect x="320.0" y="580.0" width="52.0" height="52.0" rx="10.0" fill="#FFFFFF"/><rect x="390.0" y="580.0" width="52.0" height="52.0" rx="10.0" fill="#FFFFFF"/><rect x="460.0" y="580.0" width="52.0" height="52.0" rx="10.0" fill="#FFFFFF"/><rect x="530.0" y="580.0" width="52.0" height="52.0" rx="10.0" fill="#FFFFFF"/><rect x="600.0" y="580.0" width="52.0" height="52.0" rx="10.0" fill="#FFFFFF"/><path d="M 451.0 140.0 L 666.0 292.0 L 236.0 292.0 Z" fill="#FFFFFF"/><rect x="582.0" y="170.0" width="52.0" height="150.0" rx="10.0" fill="#FFFFFF"/><circle cx="571.0" cy="100.0" r="26.0" fill="#F0863C"/><circle cx="301.0" cy="160.0" r="22.0" fill="none" stroke="#FFFFFF" stroke-width="14.0"/><path d="M 301.0 182.0 L 301.0 230.0" fill="none" stroke="#FFFFFF" stroke-width="12.0" stroke-linecap="round" stroke-linejoin="round"/><circle cx="681.0" cy="150.0" r="20.0" fill="none" stroke="#FFFFFF" stroke-width="13.0"/><path d="M 276.0 632.0 L 276.0 742.0" fill="none" stroke="#FFFFFF" stroke-width="14.0" stroke-linecap="round" stroke-linejoin="round"/><circle cx="276.0" cy="762.0" r="20.0" fill="#FFFFFF"/><path d="M 416.0 632.0 L 416.0 742.0" fill="none" stroke="#FFFFFF" stroke-width="14.0" stroke-linecap="round" stroke-linejoin="round"/><circle cx="416.0" cy="762.0" r="20.0" fill="#F0863C"/><path d="M 486.0 632.0 L 486.0 742.0" fill="none" stroke="#FFFFFF" stroke-width="14.0" stroke-linecap="round" stroke-linejoin="round"/><circle cx="486.0" cy="762.0" r="18.0" fill="none" stroke="#FFFFFF" stroke-width="12.0"/><path d="M 626.0 632.0 L 626.0 742.0" fill="none" stroke="#FFFFFF" stroke-width="14.0" stroke-linecap="round" stroke-linejoin="round"/><circle cx="626.0" cy="762.0" r="18.0" fill="none" stroke="#FFFFFF" stroke-width="12.0"/><rect x="328.0" y="782.0" width="34.0" height="34.0" rx="6.0" fill="#FFFFFF"/><rect x="540.0" y="782.0" width="34.0" height="34.0" rx="6.0" fill="#FFFFFF"/><path d="M 250.0 466.0 L 160.0 466.0 L 160.0 396.0 L 100.0 396.0" fill="none" stroke="#FFFFFF" stroke-width="14.0" stroke-linecap="round" stroke-linejoin="round"/><circle cx="78.0" cy="396.0" r="20.0" fill="none" stroke="#FFFFFF" stroke-width="13.0"/><path d="M 250.0 536.0 L 130.0 536.0" fill="none" stroke="#FFFFFF" stroke-width="14.0" stroke-linecap="round" stroke-linejoin="round"/><circle cx="105.0" cy="536.0" r="20.0" fill="#FFFFFF"/><rect x="180.0" y="449.0" width="34.0" height="34.0" rx="6.0" fill="#FFFFFF"/><path d="M 652.0 466.0 L 742.0 466.0 L 742.0 396.0 L 802.0 396.0" fill="none" stroke="#FFFFFF" stroke-width="14.0" stroke-linecap="round" stroke-linejoin="round"/><circle cx="824.0" cy="396.0" r="20.0" fill="none" stroke="#FFFFFF" stroke-width="13.0"/><path d="M 652.0 536.0 L 772.0 536.0" fill="none" stroke="#FFFFFF" stroke-width="14.0" stroke-linecap="round" stroke-linejoin="round"/><circle cx="797.0" cy="536.0" r="20.0" fill="#F0863C"/><rect x="688.0" y="449.0" width="34.0" height="34.0" rx="6.0" fill="#FFFFFF"/></g></svg>
